<svg width="41" height="40" viewBox="0 0 41 40" fill="none" xmlns="http://www.w3.org/2000/svg">
<g clip-path="url(#clip0_77_78)">
<path d="M30.6393 8.36143C36.3807 10.0414 40.5 14.635 40.5 20.0371C40.5 23.7143 38.59 27.0193 35.5593 29.2836L35.295 29.4714L34.8757 29.7614L34.8329 29.79C33.7686 30.5757 34.4271 32.2286 35.4129 33.5507L35.5957 33.7864C35.6576 33.864 35.7202 33.94 35.7836 34.0143L35.975 34.2314L36.1443 34.4143L36.2714 34.5607C36.6536 35.0214 36.6164 35.2193 36.1614 35.1714L36.0129 35.15C35.9219 35.1337 35.8316 35.114 35.7421 35.0907C34.7691 34.8496 33.8241 34.5068 32.9229 34.0679L32.5857 33.8971C32.4771 33.84 32.3717 33.7833 32.2693 33.7271L31.9729 33.5593L31.6929 33.3936L30.6029 32.7243L30.3879 32.6L30.1786 32.4879C29.6271 32.205 29.1214 32.0643 28.5129 32.1807L28.3921 32.2064C27.0483 32.4059 25.6859 32.4488 24.3321 32.3343C30.6336 29.8914 35.0064 24.5421 35.0064 18.3364C35.0064 14.5921 33.415 11.16 30.7679 8.49L30.6393 8.36143ZM16.6436 5C25.5593 5 32.7879 11.0657 32.7879 18.5457C32.7879 26.0279 25.5593 32.0929 16.6436 32.0929C15.8364 32.0919 15.0455 32.0436 14.2707 31.9479L13.8029 31.8836C13.1564 31.73 12.6207 31.8336 12.0579 32.0907L11.845 32.1929L11.6279 32.3093L11.405 32.4364L10.8121 32.7986L10.4229 33.0386L10.0029 33.2914L9.70286 33.4643L9.385 33.64L9.21857 33.7279L8.87071 33.9043C7.80598 34.4249 6.68576 34.8234 5.53143 35.0921L5.35857 35.1236C4.77214 35.2114 4.70286 34.9971 5.15429 34.4571L5.29 34.3021L5.36786 34.2186C5.43214 34.15 5.49643 34.08 5.56071 34.0086L5.75 33.7886L5.93714 33.5593L6.11786 33.3221L6.29286 33.0786L6.45857 32.83C6.48571 32.7886 6.51214 32.7467 6.53786 32.7043L6.68857 32.4507C7.38929 31.2186 7.66286 29.9236 6.72857 29.2364L6.04786 28.765L5.93071 28.6807C2.6 26.2 0.5 22.5764 0.5 18.5457C0.5 11.0657 7.72643 5 16.6436 5Z" fill="#F1B570" fill-opacity="0.9"/>
</g>
<defs>
<clipPath id="clip0_77_78">
<rect width="40" height="40" fill="white" transform="translate(0.5)"/>
</clipPath>
</defs>
</svg>
