<svg width="41" height="40" viewBox="0 0 41 40" fill="none" xmlns="http://www.w3.org/2000/svg">
<path d="M32.64 16H30.5V10C30.5 10 30.5 0 20.5 0C10.5 0 10.5 10 10.5 10V16H8.36C7.33626 16 6.35446 16.4067 5.63057 17.1306C4.90668 17.8545 4.5 18.8363 4.5 19.86V36.16C4.50529 37.1803 4.9143 38.1569 5.63761 38.8765C6.36093 39.5961 7.33972 40 8.36 40H32.64C33.6637 40 34.6455 39.5933 35.3694 38.8694C36.0933 38.1455 36.5 37.1637 36.5 36.14V19.86C36.5 18.8363 36.0933 17.8545 35.3694 17.1306C34.6455 16.4067 33.6637 16 32.64 16ZM14.5 11C14.5 8 14.5 4 20.5 4C26.5 4 26.5 8 26.5 11V16H14.5V11ZM20.5 32C19.7089 32 18.9355 31.7654 18.2777 31.3259C17.6199 30.8864 17.1072 30.2616 16.8045 29.5307C16.5017 28.7998 16.4225 27.9956 16.5769 27.2196C16.7312 26.4437 17.1122 25.731 17.6716 25.1716C18.231 24.6122 18.9437 24.2312 19.7196 24.0769C20.4956 23.9225 21.2998 24.0017 22.0307 24.3045C22.7616 24.6072 23.3864 25.1199 23.8259 25.7777C24.2654 26.4355 24.5 27.2089 24.5 28C24.5 29.0609 24.0786 30.0783 23.3284 30.8284C22.5783 31.5786 21.5609 32 20.5 32Z" fill="url(#paint0_linear_77_38)"/>
<defs>
<linearGradient id="paint0_linear_77_38" x1="4.5" y1="20" x2="36.5" y2="20" gradientUnits="userSpaceOnUse">
<stop/>
<stop offset="1" stop-color="#0CBEFF"/>
</linearGradient>
</defs>
</svg>
