<svg width="41" height="40" viewBox="0 0 41 40" fill="none" xmlns="http://www.w3.org/2000/svg">
<path d="M27.1667 23.3333C29.3768 23.3333 31.4964 24.2112 33.0592 25.774C34.622 27.3368 35.5 29.4564 35.5 31.6666V33.3333C35.5 34.2173 35.1488 35.0652 34.5237 35.6903C33.8986 36.3154 33.0507 36.6666 32.1667 36.6666H8.83333C7.94928 36.6666 7.10143 36.3154 6.47631 35.6903C5.85119 35.0652 5.5 34.2173 5.5 33.3333V31.6666C5.5 29.4564 6.37797 27.3368 7.94078 25.774C9.50358 24.2112 11.6232 23.3333 13.8333 23.3333H27.1667ZM33.8333 13.3333C34.2754 13.3333 34.6993 13.5088 35.0118 13.8214C35.3244 14.134 35.5 14.5579 35.5 14.9999V16.6666H37.1667C37.6087 16.6666 38.0326 16.8422 38.3452 17.1547C38.6577 17.4673 38.8333 17.8912 38.8333 18.3333C38.8333 18.7753 38.6577 19.1992 38.3452 19.5118C38.0326 19.8243 37.6087 19.9999 37.1667 19.9999H35.5V21.6666C35.5 22.1086 35.3244 22.5325 35.0118 22.8451C34.6993 23.1577 34.2754 23.3333 33.8333 23.3333C33.3913 23.3333 32.9674 23.1577 32.6548 22.8451C32.3423 22.5325 32.1667 22.1086 32.1667 21.6666V19.9999H30.5C30.058 19.9999 29.634 19.8243 29.3215 19.5118C29.0089 19.1992 28.8333 18.7753 28.8333 18.3333C28.8333 17.8912 29.0089 17.4673 29.3215 17.1547C29.634 16.8422 30.058 16.6666 30.5 16.6666H32.1667V14.9999C32.1667 14.5579 32.3423 14.134 32.6548 13.8214C32.9674 13.5088 33.3913 13.3333 33.8333 13.3333ZM20.5 3.33325C22.7101 3.33325 24.8298 4.21123 26.3926 5.77403C27.9554 7.33683 28.8333 9.45645 28.8333 11.6666C28.8333 13.8767 27.9554 15.9963 26.3926 17.5591C24.8298 19.1219 22.7101 19.9999 20.5 19.9999C18.2899 19.9999 16.1702 19.1219 14.6074 17.5591C13.0446 15.9963 12.1667 13.8767 12.1667 11.6666C12.1667 9.45645 13.0446 7.33683 14.6074 5.77403C16.1702 4.21123 18.2899 3.33325 20.5 3.33325Z" fill="#F1B570" fill-opacity="0.9"/>
</svg>
